<?xml version="1.0" encoding="utf-8"?>
<!-- Generator: Adobe Illustrator 16.0.3, SVG Export Plug-In . SVG Version: 6.00 Build 0)  -->
<!DOCTYPE svg PUBLIC "-//W3C//DTD SVG 1.1//EN" "http://www.w3.org/Graphics/SVG/1.1/DTD/svg11.dtd">
<svg version="1.1" id="Ebene_1" xmlns="http://www.w3.org/2000/svg" xmlns:xlink="http://www.w3.org/1999/xlink" x="0px" y="0px"
	 width="800px" height="800px" viewBox="0 0 800 800" enable-background="new 0 0 800 800" xml:space="preserve">
<path fill="#878787" stroke="#878787" stroke-miterlimit="10" d="M400,50C206.7,50,50,206.7,50,400s156.7,350,350,350
	s350-156.7,350-350S593.3,50,400,50z M636.515,481.177l-91.976-40.961l0,0C548.093,427.416,550,413.932,550,400
	c0-82.843-67.157-150-150-150s-150,67.157-150,150c0,31.16,9.503,60.099,25.767,84.082l0,0l94.852-43.636
	C378.867,446.449,389.017,450,400,450c27.614,0,50-22.386,50-50s-22.386-50-50-50c-25.848,0-47.111,19.614-49.727,44.769
	l-49.006,21.153C300.437,410.736,300,405.42,300,400c0-55.229,44.771-100,100-100s100,44.771,100,100
	c0,22.951-7.737,44.091-20.737,60.968l0,0l89.604,46.229C533.379,562.983,471.014,600,400,600c-110.457,0-200-89.544-200-200
	c0-110.457,89.543-200,200-200c8.469,0,15.874,0.419,24.066,1.441l0,0l0,0L425,101.045l0,0C578.986,113.751,700,242.735,700,400
	c0,165.686-134.314,300-300,300S100,565.686,100,400c0-157.265,121.014-286.249,275-298.955v50.196
	C248.668,163.785,150,270.367,150,400c0,138.071,111.929,250,250,250C509.654,650,602.81,579.398,636.515,481.177"/>
</svg>
